HIERARCHY
ROOT Hips
{
	OFFSET 0.00000 0.00000 0.00000
	CHANNELS 6 Xposition Yposition Zposition Zrotation Yrotation Xrotation 
	JOINT LHipJoint
	{
		OFFSET 0 0 0
		CHANNELS 3 Zrotation Yrotation Xrotation
		JOINT LeftHip
		{
			OFFSET 1.51378 -1.89840 0.47569
			CHANNELS 3 Zrotation Yrotation Xrotation
			JOINT LeftKnee
			{
				OFFSET 2.53380 -6.96157 0.00000
				CHANNELS 3 Zrotation Yrotation Xrotation
				JOINT LeftAnkle
				{
					OFFSET 2.74874 -7.55212 0.00000
					CHANNELS 3 Zrotation Yrotation Xrotation
					JOINT LeftToe
					{
						OFFSET 0.18263 -0.50178 1.99677
						CHANNELS 3 Zrotation Yrotation Xrotation
						End Site
						{
							OFFSET 0.00000 -0.00000 1.03711
						}
					}
				}
			}
		}
	}
	JOINT RHipJoint
	{
		OFFSET 0 0 0
		CHANNELS 3 Zrotation Yrotation Xrotation
		JOINT RightHip
		{
			OFFSET -1.43037 -1.89840 0.47569
			CHANNELS 3 Zrotation Yrotation Xrotation
			JOINT RightKnee
			{
				OFFSET -2.69849 -7.41406 0.00000
				CHANNELS 3 Zrotation Yrotation Xrotation
				JOINT RightAnkle
				{
					OFFSET -2.69369 -7.40087 0.00000
					CHANNELS 3 Zrotation Yrotation Xrotation
					JOINT RightToe
					{
						OFFSET -0.28932 -0.79491 2.04975
						CHANNELS 3 Zrotation Yrotation Xrotation
						End Site
						{
							OFFSET 0.00009 0.00010 1.09536
						}
					}
				}
			}
		}
	}
	JOINT lowerback
	{
		OFFSET 0 0 0
		CHANNELS 3 Zrotation Yrotation Xrotation
		JOINT Chest
		{
			OFFSET 0.01912 1.94784 -0.02419
			CHANNELS 3 Zrotation Yrotation Xrotation
			JOINT Chest2
			{
				OFFSET 0.07565 1.94258 0.01909
				CHANNELS 3 Zrotation Yrotation Xrotation
				JOINT lowerneck
				{
					OFFSET 0 0 0
					CHANNELS 3 Zrotation Yrotation Xrotation
					JOINT Neck
					{
						OFFSET -0.07010 1.86195 0.18976
						CHANNELS 3 Zrotation Yrotation Xrotation
						JOINT Head
						{
							OFFSET 0.02284 1.86595 -0.31497
							CHANNELS 3 Zrotation Yrotation Xrotation
							End Site
							{
								OFFSET 0.01200 1.90122 -0.12838
							}
						}
					}
				}
				JOINT LeftCollar
				{
					OFFSET 0 0 0
					CHANNELS 3 Zrotation Yrotation Xrotation
					JOINT LeftShoulder
					{
						OFFSET 3.39189 0.96331 -0.10437
CHANNELS 3 Zrotation Xrotation Yrotation
						JOINT LeftElbow
						{
OFFSET 0 -5.148450 0.000000
CHANNELS 3 Zrotation Xrotation Yrotation
							JOINT LeftWrist
							{
OFFSET 0 -3.436740 -0.000000
CHANNELS 3 Zrotation Xrotation Yrotation
								JOINT lhand
								{
									OFFSET 0 0 0
CHANNELS 3 Zrotation Xrotation Yrotation
									JOINT LFingers
									{
OFFSET 0 -0.588710 0.000000
CHANNELS 3 Zrotation Xrotation Yrotation
										End Site
										{
OFFSET 0 -0.474630 0.000000
										}
									}
								}
								JOINT LThumb
								{
OFFSET 0 0.000000 0.000000
CHANNELS 3 Zrotation Xrotation Yrotation
									End Site
									{
OFFSET 0 -0.481880 0.481880
									}
								}
							}
						}
					}
				}
				JOINT RightCollar
				{
					OFFSET 0 0 0
					CHANNELS 3 Zrotation Yrotation Xrotation
					JOINT RightShoulder
					{
						OFFSET -3.34934 1.18831 -0.19928
CHANNELS 3 Zrotation Xrotation Yrotation
						JOINT RightElbow
						{
OFFSET 0 -5.421850 0.000000
CHANNELS 3 Zrotation Xrotation Yrotation
							JOINT RightWrist
							{
OFFSET 0 -3.513170 -0.000000
CHANNELS 3 Zrotation Xrotation Yrotation
								JOINT rhand
								{
									OFFSET 0 0 0
CHANNELS 3 Zrotation Xrotation Yrotation
									JOINT RFingers
									{
OFFSET 0 -0.663190 0.000000
CHANNELS 3 Zrotation Xrotation Yrotation
										End Site
										{
OFFSET 0 -0.534680 0.000000
										}
									}
								}
								JOINT RThumb
								{
OFFSET 0 0.000000 0.000000
CHANNELS 3 Zrotation Xrotation Yrotation
									End Site
									{
OFFSET 0 -0.542840 0.542840
									}
								}
							}
						}
					}
				}
			}
		}
	}
}
MOTION
Frames: 6
Frame Time: 0.008333333333333333
15.529300 17.842800 -3.460100 -159.610000 -83.030300 166.592000 0.000000 0.000000 0.000000 -19.604000 -7.342800 -17.240700 3.112400 10.874800 31.858700 0.900000 6.567900 -21.461400 1.376500 -7.424500 -20.979300 0.000000 0.000000 0.000000 25.712800 14.926600 -17.936300 -4.571500 -12.884400 38.937100 -2.182200 0.656200 -27.783400 -0.074000 -1.754900 4.828800 -1.299700 0.865300 -0.402800 2.953300 1.123000 0.228100 3.771900 0.543100 0.375100 -3.263900 -0.601400 -14.652300 -1.985200 -0.309000 32.800400 -0.353100 -1.181200 13.527400 -0.000000 -0.000000 0.000000 -1.956500 1.440400 -19.990000 17.525500 -27.545300 4.327500 17.928000 2.330600 -25.148600 0.000000 0.000000 0.000000 -7.125000 0.000000 0.000000 -12.650600 55.793500 3.389300 -0.000000 -0.000000 0.000000 -1.949300 -0.878600 16.094500 -14.502300 -23.448200 -3.025100 -25.989900 -3.528200 -12.506100 0.000000 0.000000 0.000000 7.125000 0.000000 -0.000000 0.878700 16.119300 0.600200
15.492251 17.837295 -3.528143 -160.377960 -83.009176 167.521586 0.000000 0.000000 0.000000 -19.457133 -7.160250 -17.367295 3.110999 10.872599 31.851296 0.886491 6.719270 -21.446268 1.490989 -7.713820 -21.848063 0.000000 0.000000 0.000000 25.769677 14.749847 -18.106320 -4.589537 -12.906123 39.018114 -2.200219 1.248415 -27.729922 -0.074923 -1.765577 4.858264 -1.142948 0.739336 -0.201676 2.980704 0.951134 0.319991 3.708679 0.455675 0.371596 -3.433513 -0.400505 -14.591564 -2.135179 0.064348 32.955321 -0.328187 -1.070835 13.581734 0.000000 0.000000 0.000000 -2.112026 1.361245 -20.574355 17.702324 -27.774315 4.409625 18.762776 1.874725 -25.329525 0.000000 0.000000 0.000000 -7.125000 0.000000 0.000000 -11.875161 56.144188 3.278637 0.000000 0.000000 0.000000 -2.180294 -0.925400 16.058132 -14.420152 -23.332231 -2.992481 -26.336964 -3.706143 -12.225691 0.000000 0.000000 0.000000 7.125000 0.000000 0.000000 0.618954 16.388516 0.419261
15.435540 17.828091 -3.609818 -160.803780 -82.289486 168.128083 0.000000 0.000000 0.000000 -19.129316 -7.604598 -17.132050 3.144886 10.925936 32.030553 0.741566 8.406704 -21.416289 1.848103 -8.542171 -24.373204 0.000000 0.000000 0.000000 26.146537 14.295329 -18.197000 -4.580026 -12.894630 38.975315 -2.267387 2.514980 -27.839469 -0.048343 -1.417103 3.897371 -0.692563 0.720757 -0.085825 2.934106 0.921225 0.436839 3.405092 0.439423 0.436404 -3.102188 -0.188965 -14.578312 -2.488617 0.368303 33.187355 -0.484914 -0.960658 13.679754 0.000000 0.000000 0.000000 -2.096342 1.530371 -20.008452 17.623542 -27.672540 4.372971 18.142116 2.039360 -25.210506 0.000000 0.000000 0.000000 -7.125000 0.000000 0.000000 -12.460042 55.898535 3.368895 0.000000 0.000000 0.000000 -1.999366 -1.166559 15.734028 -14.277208 -23.129606 -2.936133 -26.297230 -3.199473 -12.351893 0.000000 0.000000 0.000000 7.125000 0.000000 0.000000 0.655496 16.253845 0.445805
15.386382 17.820098 -3.710734 -153.794619 -80.969167 162.058940 0.000000 0.000000 0.000000 -17.028198 -7.313959 -18.595981 3.354299 11.247646 33.119541 0.849716 8.021935 -22.099615 1.588729 -7.950978 -22.565230 0.000000 0.000000 0.000000 27.839778 14.057896 -18.676296 -4.420919 -12.700347 38.256943 -2.209198 3.687148 -27.221385 -0.010444 -0.659686 1.812713 0.746972 0.888793 -0.267737 3.320100 1.123761 0.216596 2.993577 0.539544 0.320007 -2.907667 -0.019983 -14.239991 -2.612449 0.554533 33.252520 -0.540047 -0.881354 13.633475 0.000000 0.000000 0.000000 -1.763186 2.089731 -20.205278 17.553557 -27.581682 4.340551 17.736344 1.651668 -25.172100 0.000000 0.000000 0.000000 -7.125000 0.000000 0.000000 -12.859763 55.778036 3.441841 0.000000 0.000000 0.000000 -1.915908 -0.968931 16.165073 -14.514339 -23.465111 -3.029879 -26.224561 -3.884470 -12.570625 0.000000 0.000000 0.000000 7.125000 0.000000 0.000000 0.721274 16.021032 0.494188
15.324959 17.817113 -3.805565 -163.838317 -80.913002 172.301631 0.000000 0.000000 0.000000 -18.414293 -7.171235 -18.373642 3.268446 11.117466 32.676910 0.906252 7.708097 -22.361583 1.316435 -7.257871 -20.485858 0.000000 0.000000 0.000000 26.447823 14.071603 -18.989060 -4.540924 -12.847368 38.799675 -2.244933 3.707747 -27.446443 -0.000005 0.036908 -0.101538 -0.633182 0.918989 -0.580534 3.061606 1.172608 0.590165 3.515019 0.557736 0.853481 -3.070248 0.028020 -14.331883 -2.793380 0.732408 33.290209 -0.557535 -0.851494 13.673619 0.000000 0.000000 0.000000 -2.222310 1.521578 -18.698210 17.078332 -26.960880 4.122821 17.880375 3.568251 -24.645378 0.000000 0.000000 0.000000 -7.125000 0.000000 0.000000 -12.454480 55.282824 3.180225 0.000000 0.000000 0.000000 -2.034810 -1.751505 15.874386 -14.563908 -23.535060 -3.049643 -26.284383 -3.418079 -12.045478 0.000000 0.000000 0.000000 7.125000 0.000000 0.000000 0.642798 16.593230 0.432567
15.251956 17.807903 -3.902780 -162.449055 -80.967471 171.340134 0.000000 0.000000 0.000000 -17.610285 -8.454381 -18.467913 3.470524 11.420288 33.710919 1.255924 5.903644 -24.055349 0.350527 -3.803484 -10.524601 0.000000 0.000000 0.000000 26.852408 13.714618 -19.026226 -4.446172 -12.731520 38.371672 -2.282356 4.930404 -27.478150 -0.027809 -1.076569 2.959568 -0.290608 0.830734 -0.439254 3.276662 1.043081 0.636560 3.540868 0.490944 0.832641 -2.839728 0.141755 -14.113557 -3.257812 0.955935 33.326194 -0.748902 -0.794012 13.647306 0.000000 0.000000 0.000000 -2.178436 1.556758 -18.957119 17.107346 -26.999011 4.135950 18.077026 3.293070 -24.494047 0.000000 0.000000 0.000000 -7.125000 0.000000 0.000000 -12.181063 55.170726 3.075495 0.000000 0.000000 0.000000 -2.043914 -1.676845 16.027017 -14.757425 -23.807155 -3.127424 -26.615550 -3.113188 -11.954406 0.000000 0.000000 0.000000 7.125000 0.000000 0.000000 0.406697 16.656542 0.273044
